<svg width="32" height="32" viewBox="0 0 32 32" fill="none" xmlns="http://www.w3.org/2000/svg">
<g clip-path="url(#clip0_902_177)">
<rect width="32" height="32" fill="#0D0D0D"/>
<path d="M24.6822 5.02814C17.0958 -4.10707 15.4718 3.08204 14.567 5.02814C11.5769 3.16825 8.7241 5.47416 6.56944 8.87966C4.92587 11.4774 3.68851 14.7149 3.10625 17.2313C-3.57535 22.8177 4.56785 25.2904 5.68144 25.2904C6.72544 27.7631 9.85744 26.8473 10.855 26.5955C8.53504 32.9832 14.567 32.0216 18.4878 29.8924C25.9118 30.6479 25.7502 25.3511 27.5126 25.3362C32.9414 25.2904 31.8046 20.2306 30.0414 18.3761C29.2294 12.3317 28.603 10.7977 24.6822 5.02814Z" fill="#83BD0F"/>
<path d="M12.0768 8.62781C9.89599 10.8487 7.18159 9.75731 6.3232 9.54362C7.55279 6.91067 11.056 2.83531 14.4896 5.10194C15.3248 3.31612 17.4592 -4.12485 24.6744 5.10194C25.0456 5.76133 25.4864 6.20091 25.4864 6.42987C23.12 8.39886 20.8696 7.84937 19.3848 7.2541C16.508 11.4668 13.956 9.97863 12.0768 8.62781Z" fill="#81BA0F"/>
<path fill-rule="evenodd" clip-rule="evenodd" d="M13.4058 12.1956C14.9854 11.9962 16.4666 13.3835 16.7143 15.2942C16.962 17.2049 15.8822 18.9155 14.3027 19.1149C12.7908 19.3058 11.369 18.043 11.0328 16.259C11.5347 16.1522 12.7315 15.8515 13.0598 15.7024C13.4632 15.5193 13.5388 15.3819 13.438 15.3132C13.0075 15.0251 11.7829 14.7555 11.0452 14.6374C11.3194 13.3428 12.2223 12.345 13.4058 12.1956ZM14.3409 13.0792C13.9821 13.0792 13.6913 13.3662 13.6913 13.7203C13.6913 14.0743 13.9821 14.3613 14.3409 14.3613C14.6996 14.3613 14.9905 14.0743 14.9905 13.7203C14.9905 13.3662 14.6996 13.0792 14.3409 13.0792Z" fill="#0D0D0D"/>
<path fill-rule="evenodd" clip-rule="evenodd" d="M21.0154 11.3256C22.5949 11.1262 24.0762 12.5135 24.3238 14.4242C24.5715 16.3349 23.4918 18.0455 21.9122 18.2449C20.4004 18.4357 18.9786 17.173 18.6424 15.389C19.1443 15.2822 20.3411 14.9815 20.6694 14.8324C21.0728 14.6492 21.1484 14.5119 21.0476 14.4432C20.6171 14.1551 19.3925 13.8855 18.6548 13.7674C18.929 12.4728 19.8319 11.475 21.0154 11.3256ZM21.9505 12.2092C21.5917 12.2092 21.3009 12.4962 21.3009 12.8503C21.3009 13.2043 21.5917 13.4913 21.9505 13.4913C22.3092 13.4913 22.6001 13.2043 22.6001 12.8503C22.6001 12.4962 22.3092 12.2092 21.9505 12.2092Z" fill="#0D0D0D"/>
</g>
<defs>
<clipPath id="clip0_902_177">
<rect width="32" height="32" fill="white"/>
</clipPath>
</defs>
</svg>
